SplineFontDB: 3.0
FontName: TomsCallout
FullName: TomsCallout
FamilyName: TomsCallout
Weight: Book
Copyright: Created by Thomas Schraitle,SUSE LINUX GmbH; Maxfeldstrasse 5 with FontForge 2.0 (http://fontforge.sf.net)\nBased on DejaVuSans
UComments: "2010-3-19: Created." 
Version: 001.000
ItalicAngle: 0
UnderlinePosition: -85
UnderlineWidth: 90
Ascent: 1556
Descent: 492
LayerCount: 2
Layer: 0 1 "Back"  1
Layer: 1 1 "Zeichenebene"  0
NeedsXUIDChange: 1
XUID: [1021 963 957555486 15895760]
FSType: 0
OS2Version: 0
OS2_WeightWidthSlopeOnly: 0
OS2_UseTypoMetrics: 1
CreationTime: 1268992982
ModificationTime: 1268999670
PfmFamily: 33
TTFWeight: 400
TTFWidth: 5
LineGap: 0
VLineGap: 0
Panose: 2 11 6 3 2 1 4 2 2 3
OS2TypoAscent: 0
OS2TypoAOffset: 1
OS2TypoDescent: 0
OS2TypoDOffset: 1
OS2TypoLinegap: 410
OS2WinAscent: -488
OS2WinAOffset: 1
OS2WinDescent: -234
OS2WinDOffset: 1
HheadAscent: -488
HheadAOffset: 1
HheadDescent: 234
HheadDOffset: 1
OS2SubXSize: 1331
OS2SubYSize: 1433
OS2SubXOff: 0
OS2SubYOff: 286
OS2SupXSize: 1331
OS2SupYSize: 1433
OS2SupXOff: 0
OS2SupYOff: 983
OS2StrikeYSize: 102
OS2StrikeYPos: 530
OS2Vendor: 'PfEd'
DEI: 91125

StartChar: uni2776
Encoding: 10102 10102 0
Width: 1716
Flags: HW
LayerCount: 2
Fore
SplineSet
543 285 m 1,0,-1
 543 149 l 1,1,-1
 1231 149 l 1,2,-1
 1231 285 l 1,3,-1
 967 285 l 1,4,-1
 967 1344 l 1,5,-1
 806 1344 l 1,6,-1
 520 1286 l 1,7,-1
 520 1139 l 1,8,-1
 807 1196 l 1,9,-1
 807 285 l 1,10,-1
 543 285 l 1,0,-1
858 1597 m 128,-1,12
 1032 1597 1032 1597 1184 1533 c 1,13,14
 1334 1471 1334 1471 1458 1346 c 0,15,16
 1584 1220 1584 1220 1645.5 1070 c 128,-1,17
 1707 920 1707 920 1707 743 c 0,18,19
 1707 571 1707 571 1645.5 421 c 128,-1,20
 1584 271 1584 271 1458 145 c 0,21,22
 1334 20 1334 20 1184 -42 c 1,23,24
 1032 -106 1032 -106 858 -106 c 128,-1,25
 684 -106 684 -106 532 -42 c 1,26,27
 382 20 382 20 258 145 c 0,28,29
 132 271 132 271 70.5 421 c 128,-1,30
 9 571 9 571 9 743 c 0,31,32
 9 920 9 920 70.5 1070 c 128,-1,33
 132 1220 132 1220 258 1346 c 0,34,35
 382 1471 382 1471 532 1533 c 1,36,11
 684 1597 684 1597 858 1597 c 128,-1,12
EndSplineSet
EndChar

StartChar: uni2777
Encoding: 10103 10103 1
Width: 1716
Flags: HW
LayerCount: 2
Fore
SplineSet
675 288 m 5,0,1
 870 487 870 487 977.5 598 c 132,-1,2
 1085 709 1085 709 1105 732 c 5,3,4
 1178 822 1178 822 1205.5 888 c 132,-1,5
 1233 954 1233 954 1233 1027 c 4,6,7
 1233 1182 1233 1182 1122.5 1275 c 132,-1,8
 1012 1368 1012 1368 826 1368 c 4,9,10
 756 1368 756 1368 671 1348 c 132,-1,11
 586 1328 586 1328 489 1289 c 5,12,-1
 489 1126 l 5,13,14
 585 1179 585 1179 669.5 1205.5 c 132,-1,15
 754 1232 754 1232 830 1232 c 4,16,17
 937 1232 937 1232 1003.5 1172 c 132,-1,18
 1070 1112 1070 1112 1070 1017 c 4,19,20
 1070 958 1070 958 1039.5 898 c 132,-1,21
 1009 838 1009 838 931 750 c 4,22,23
 890 704 890 704 731.5 543.5 c 132,-1,24
 573 383 573 383 481 288 c 5,25,-1
 481 152 l 5,26,-1
 1239 152 l 5,27,-1
 1239 288 l 5,28,-1
 675 288 l 5,0,1
858 1597 m 128,-1,30
 1032 1597 1032 1597 1184 1533 c 1,31,32
 1334 1471 1334 1471 1458 1346 c 0,33,34
 1584 1220 1584 1220 1645.5 1070 c 128,-1,35
 1707 920 1707 920 1707 743 c 0,36,37
 1707 571 1707 571 1645.5 421 c 128,-1,38
 1584 271 1584 271 1458 145 c 0,39,40
 1334 20 1334 20 1184 -42 c 1,41,42
 1032 -106 1032 -106 858 -106 c 128,-1,43
 684 -106 684 -106 532 -42 c 1,44,45
 382 20 382 20 258 145 c 0,46,47
 132 271 132 271 70.5 421 c 128,-1,48
 9 571 9 571 9 743 c 0,49,50
 9 920 9 920 70.5 1070 c 128,-1,51
 132 1220 132 1220 258 1346 c 0,52,53
 382 1471 382 1471 532 1533 c 1,54,29
 684 1597 684 1597 858 1597 c 128,-1,30
EndSplineSet
EndChar

StartChar: uni2778
Encoding: 10104 10104 2
Width: 1716
Flags: HW
LayerCount: 2
Fore
SplineSet
1030 793 m 5,0,1
 1135 820 1135 820 1192 888 c 132,-1,2
 1249 956 1249 956 1249 1056 c 4,3,4
 1249 1198 1249 1198 1141.5 1281.5 c 132,-1,5
 1034 1365 1034 1365 850 1365 c 4,6,7
 779 1365 779 1365 698.5 1352.5 c 132,-1,8
 618 1340 618 1340 526 1314 c 5,9,-1
 526 1170 l 5,10,11
 618 1200 618 1200 694 1214.5 c 132,-1,12
 770 1229 770 1229 836 1229 c 4,13,14
 958 1229 958 1229 1023 1180 c 132,-1,15
 1088 1131 1088 1131 1088 1039 c 4,16,17
 1088 949 1088 949 1025 901.5 c 132,-1,18
 962 854 962 854 842 854 c 6,19,-1
 697 854 l 5,20,-1
 697 721 l 5,21,-1
 836 721 l 6,22,23
 968 721 968 721 1042 661.5 c 132,-1,24
 1116 602 1116 602 1116 496 c 4,25,26
 1116 382 1116 382 1036.5 322 c 132,-1,27
 957 262 957 262 805 262 c 4,28,29
 718 262 718 262 638 282 c 132,-1,30
 558 302 558 302 490 341 c 5,31,-1
 490 185 l 5,32,33
 575 156 575 156 654.5 141 c 132,-1,34
 734 126 734 126 810 126 c 4,35,36
 1034 126 1034 126 1155.5 223 c 132,-1,37
 1277 320 1277 320 1277 496 c 4,38,39
 1277 612 1277 612 1211.5 690 c 132,-1,40
 1146 768 1146 768 1030 793 c 5,0,1
858 1597 m 128,-1,42
 1032 1597 1032 1597 1184 1533 c 1,43,44
 1334 1471 1334 1471 1458 1346 c 0,45,46
 1584 1220 1584 1220 1645.5 1070 c 128,-1,47
 1707 920 1707 920 1707 743 c 0,48,49
 1707 571 1707 571 1645.5 421 c 128,-1,50
 1584 271 1584 271 1458 145 c 0,51,52
 1334 20 1334 20 1184 -42 c 1,53,54
 1032 -106 1032 -106 858 -106 c 128,-1,55
 684 -106 684 -106 532 -42 c 1,56,57
 382 20 382 20 258 145 c 0,58,59
 132 271 132 271 70.5 421 c 128,-1,60
 9 571 9 571 9 743 c 0,61,62
 9 920 9 920 70.5 1070 c 128,-1,63
 132 1220 132 1220 258 1346 c 0,64,65
 382 1471 382 1471 532 1533 c 1,66,41
 684 1597 684 1597 858 1597 c 128,-1,42
EndSplineSet
EndChar

StartChar: uni2779
Encoding: 10105 10105 3
Width: 1716
Flags: HW
LayerCount: 2
Fore
SplineSet
924 1203 m 5,0,-1
 924 565 l 5,1,-1
 516 565 l 5,2,-1
 924 1203 l 5,0,-1
882 1344 m 5,3,-1
 385 587 l 5,4,-1
 385 431 l 5,5,-1
 924 431 l 5,6,-1
 924 149 l 5,7,-1
 1085 149 l 5,8,-1
 1085 431 l 5,9,-1
 1255 431 l 5,10,-1
 1255 565 l 5,11,-1
 1085 565 l 5,12,-1
 1085 1344 l 5,13,-1
 882 1344 l 5,3,-1
858 1597 m 128,-1,15
 1032 1597 1032 1597 1184 1533 c 1,16,17
 1334 1471 1334 1471 1458 1346 c 0,18,19
 1584 1220 1584 1220 1645.5 1070 c 128,-1,20
 1707 920 1707 920 1707 743 c 0,21,22
 1707 571 1707 571 1645.5 421 c 128,-1,23
 1584 271 1584 271 1458 145 c 0,24,25
 1334 20 1334 20 1184 -42 c 1,26,27
 1032 -106 1032 -106 858 -106 c 128,-1,28
 684 -106 684 -106 532 -42 c 1,29,30
 382 20 382 20 258 145 c 0,31,32
 132 271 132 271 70.5 421 c 128,-1,33
 9 571 9 571 9 743 c 0,34,35
 9 920 9 920 70.5 1070 c 128,-1,36
 132 1220 132 1220 258 1346 c 0,37,38
 382 1471 382 1471 532 1533 c 1,39,14
 684 1597 684 1597 858 1597 c 128,-1,15
EndSplineSet
EndChar

StartChar: uni277A
Encoding: 10106 10106 4
Width: 1716
Flags: HW
LayerCount: 2
Fore
SplineSet
541 1341 m 5,0,-1
 541 741 l 5,1,2
 608 771 608 771 672.5 785.5 c 132,-1,3
 737 800 737 800 802 800 c 4,4,5
 940 800 940 800 1021 727 c 132,-1,6
 1102 654 1102 654 1102 530 c 4,7,8
 1102 405 1102 405 1021 332 c 132,-1,9
 940 259 940 259 802 259 c 4,10,11
 716 259 716 259 639.5 278.5 c 132,-1,12
 563 298 563 298 491 337 c 5,13,-1
 491 174 l 5,14,15
 574 149 574 149 652 136 c 132,-1,16
 730 123 730 123 805 123 c 4,17,18
 1023 123 1023 123 1143 230 c 132,-1,19
 1263 337 1263 337 1263 530 c 4,20,21
 1263 717 1263 717 1146.5 826.5 c 132,-1,22
 1030 936 1030 936 830 936 c 4,23,24
 795 936 795 936 759.5 930 c 132,-1,25
 724 924 724 924 689 912 c 5,26,-1
 689 1205 l 5,27,-1
 1175 1205 l 5,28,-1
 1175 1341 l 5,29,-1
 541 1341 l 5,0,-1
858 1597 m 128,-1,31
 1032 1597 1032 1597 1184 1533 c 1,32,33
 1334 1471 1334 1471 1458 1346 c 0,34,35
 1584 1220 1584 1220 1645.5 1070 c 128,-1,36
 1707 920 1707 920 1707 743 c 0,37,38
 1707 571 1707 571 1645.5 421 c 128,-1,39
 1584 271 1584 271 1458 145 c 0,40,41
 1334 20 1334 20 1184 -42 c 1,42,43
 1032 -106 1032 -106 858 -106 c 128,-1,44
 684 -106 684 -106 532 -42 c 1,45,46
 382 20 382 20 258 145 c 0,47,48
 132 271 132 271 70.5 421 c 128,-1,49
 9 571 9 571 9 743 c 0,50,51
 9 920 9 920 70.5 1070 c 128,-1,52
 132 1220 132 1220 258 1346 c 0,53,54
 382 1471 382 1471 532 1533 c 1,55,30
 684 1597 684 1597 858 1597 c 128,-1,31
EndSplineSet
EndChar

StartChar: uni277B
Encoding: 10107 10107 5
Width: 1716
Flags: HW
LayerCount: 2
Fore
SplineSet
848 811 m 4,0,1
 957 811 957 811 1020.5 736.5 c 132,-1,2
 1084 662 1084 662 1084 532 c 4,3,4
 1084 404 1084 404 1020.5 329 c 132,-1,5
 957 254 957 254 848 254 c 4,6,7
 740 254 740 254 676 329 c 132,-1,8
 612 404 612 404 612 532 c 4,9,10
 612 662 612 662 676 736.5 c 132,-1,11
 740 811 740 811 848 811 c 4,0,1
1169 1317 m 5,12,13
 1102 1341 1102 1341 1040 1353 c 132,-1,14
 978 1365 978 1365 917 1365 c 4,15,16
 691 1365 691 1365 556.5 1196.5 c 132,-1,17
 422 1028 422 1028 422 745 c 4,18,19
 422 444 422 444 531.5 285 c 132,-1,20
 641 126 641 126 848 126 c 4,21,22
 1029 126 1029 126 1138 237 c 132,-1,23
 1247 348 1247 348 1247 532 c 4,24,25
 1247 720 1247 720 1142.5 829.5 c 132,-1,26
 1038 939 1038 939 858 939 c 4,27,28
 772 939 772 939 701 901.5 c 132,-1,29
 630 864 630 864 583 795 c 5,30,31
 595 1013 595 1013 679.5 1121 c 132,-1,32
 764 1229 764 1229 924 1229 c 4,33,34
 984 1229 984 1229 1046 1214 c 132,-1,35
 1108 1199 1108 1199 1169 1170 c 5,36,-1
 1169 1317 l 5,12,13
858 1597 m 128,-1,38
 1032 1597 1032 1597 1184 1533 c 1,39,40
 1334 1471 1334 1471 1458 1346 c 0,41,42
 1584 1220 1584 1220 1645.5 1070 c 128,-1,43
 1707 920 1707 920 1707 743 c 0,44,45
 1707 571 1707 571 1645.5 421 c 128,-1,46
 1584 271 1584 271 1458 145 c 0,47,48
 1334 20 1334 20 1184 -42 c 1,49,50
 1032 -106 1032 -106 858 -106 c 128,-1,51
 684 -106 684 -106 532 -42 c 1,52,53
 382 20 382 20 258 145 c 0,54,55
 132 271 132 271 70.5 421 c 128,-1,56
 9 571 9 571 9 743 c 0,57,58
 9 920 9 920 70.5 1070 c 128,-1,59
 132 1220 132 1220 258 1346 c 0,60,61
 382 1471 382 1471 532 1533 c 1,62,37
 684 1597 684 1597 858 1597 c 128,-1,38
EndSplineSet
EndChar

StartChar: uni277C
Encoding: 10108 10108 6
Width: 1716
Flags: HW
LayerCount: 2
Fore
SplineSet
470 1344 m 5,0,-1
 470 1208 l 5,1,-1
 1044 1208 l 5,2,-1
 636 149 l 5,3,-1
 804 149 l 5,4,-1
 1238 1275 l 5,5,-1
 1238 1344 l 5,6,-1
 470 1344 l 5,0,-1
858 1597 m 128,-1,8
 1032 1597 1032 1597 1184 1533 c 1,9,10
 1334 1471 1334 1471 1458 1346 c 0,11,12
 1584 1220 1584 1220 1645.5 1070 c 128,-1,13
 1707 920 1707 920 1707 743 c 0,14,15
 1707 571 1707 571 1645.5 421 c 128,-1,16
 1584 271 1584 271 1458 145 c 0,17,18
 1334 20 1334 20 1184 -42 c 1,19,20
 1032 -106 1032 -106 858 -106 c 128,-1,21
 684 -106 684 -106 532 -42 c 1,22,23
 382 20 382 20 258 145 c 0,24,25
 132 271 132 271 70.5 421 c 128,-1,26
 9 571 9 571 9 743 c 0,27,28
 9 920 9 920 70.5 1070 c 128,-1,29
 132 1220 132 1220 258 1346 c 0,30,31
 382 1471 382 1471 532 1533 c 1,32,7
 684 1597 684 1597 858 1597 c 128,-1,8
EndSplineSet
EndChar

StartChar: uni277D
Encoding: 10109 10109 7
Width: 1716
Flags: HW
LayerCount: 2
Fore
SplineSet
857 716 m 4,0,1
 973 716 973 716 1039 654.5 c 132,-1,2
 1105 593 1105 593 1105 485 c 4,3,4
 1105 378 1105 378 1038.5 316 c 132,-1,5
 972 254 972 254 857 254 c 132,-1,6
 742 254 742 254 676 315.5 c 132,-1,7
 610 377 610 377 610 485 c 132,-1,8
 610 593 610 593 676 654.5 c 132,-1,9
 742 716 742 716 857 716 c 4,0,1
695 785 m 5,10,11
 579 758 579 758 513 679 c 132,-1,12
 447 600 447 600 447 485 c 4,13,14
 447 312 447 312 553 219 c 132,-1,15
 659 126 659 126 857 126 c 132,-1,16
 1055 126 1055 126 1161 219 c 132,-1,17
 1267 312 1267 312 1267 485 c 4,18,19
 1267 600 1267 600 1201.5 679 c 132,-1,20
 1136 758 1136 758 1019 785 c 5,21,22
 1123 811 1123 811 1181 882 c 132,-1,23
 1239 953 1239 953 1239 1056 c 4,24,25
 1239 1199 1239 1199 1137 1282 c 132,-1,26
 1035 1365 1035 1365 857 1365 c 132,-1,27
 679 1365 679 1365 577 1282 c 132,-1,28
 475 1199 475 1199 475 1056 c 4,29,30
 475 953 475 953 533 882 c 132,-1,31
 591 811 591 811 695 785 c 5,10,11
636 1040 m 4,32,33
 636 1133 636 1133 694 1185 c 132,-1,34
 752 1237 752 1237 857 1237 c 4,35,36
 961 1237 961 1237 1020 1185 c 132,-1,37
 1079 1133 1079 1133 1079 1040 c 4,38,39
 1079 948 1079 948 1020 896 c 132,-1,40
 961 844 961 844 857 844 c 4,41,42
 752 844 752 844 694 896 c 132,-1,43
 636 948 636 948 636 1040 c 4,32,33
858 1597 m 128,-1,45
 1032 1597 1032 1597 1184 1533 c 1,46,47
 1334 1471 1334 1471 1458 1346 c 0,48,49
 1584 1220 1584 1220 1645.5 1070 c 128,-1,50
 1707 920 1707 920 1707 743 c 0,51,52
 1707 571 1707 571 1645.5 421 c 128,-1,53
 1584 271 1584 271 1458 145 c 0,54,55
 1334 20 1334 20 1184 -42 c 1,56,57
 1032 -106 1032 -106 858 -106 c 128,-1,58
 684 -106 684 -106 532 -42 c 1,59,60
 382 20 382 20 258 145 c 0,61,62
 132 271 132 271 70.5 421 c 128,-1,63
 9 571 9 571 9 743 c 0,64,65
 9 920 9 920 70.5 1070 c 128,-1,66
 132 1220 132 1220 258 1346 c 0,67,68
 382 1471 382 1471 532 1533 c 1,69,44
 684 1597 684 1597 858 1597 c 128,-1,45
EndSplineSet
EndChar

StartChar: uni277E
Encoding: 10110 10110 8
Width: 1716
Flags: HW
LayerCount: 2
Fore
SplineSet
545 174 m 5,0,1
 612 150 612 150 674.5 138 c 132,-1,2
 737 126 737 126 798 126 c 4,3,4
 1024 126 1024 126 1158 294.5 c 132,-1,5
 1292 463 1292 463 1292 745 c 4,6,7
 1292 1048 1292 1048 1183 1206.5 c 132,-1,8
 1074 1365 1074 1365 866 1365 c 4,9,10
 686 1365 686 1365 577 1254 c 132,-1,11
 468 1143 468 1143 468 959 c 4,12,13
 468 771 468 771 572.5 662.5 c 132,-1,14
 677 554 677 554 856 554 c 4,15,16
 942 554 942 554 1013.5 591 c 132,-1,17
 1085 628 1085 628 1131 696 c 5,18,19
 1119 477 1119 477 1034.5 369.5 c 132,-1,20
 950 262 950 262 790 262 c 4,21,22
 730 262 730 262 668 277 c 132,-1,23
 606 292 606 292 545 321 c 5,24,-1
 545 174 l 5,0,1
866 680 m 4,25,26
 758 680 758 680 694 754.5 c 132,-1,27
 630 829 630 829 630 959 c 4,28,29
 630 1088 630 1088 694 1162.5 c 132,-1,30
 758 1237 758 1237 866 1237 c 4,31,32
 975 1237 975 1237 1038.5 1162.5 c 132,-1,33
 1102 1088 1102 1088 1102 959 c 4,34,35
 1102 829 1102 829 1038.5 754.5 c 132,-1,36
 975 680 975 680 866 680 c 4,25,26
858 1597 m 128,-1,38
 1032 1597 1032 1597 1184 1533 c 1,39,40
 1334 1471 1334 1471 1458 1346 c 0,41,42
 1584 1220 1584 1220 1645.5 1070 c 128,-1,43
 1707 920 1707 920 1707 743 c 0,44,45
 1707 571 1707 571 1645.5 421 c 128,-1,46
 1584 271 1584 271 1458 145 c 0,47,48
 1334 20 1334 20 1184 -42 c 1,49,50
 1032 -106 1032 -106 858 -106 c 128,-1,51
 684 -106 684 -106 532 -42 c 1,52,53
 382 20 382 20 258 145 c 0,54,55
 132 271 132 271 70.5 421 c 128,-1,56
 9 571 9 571 9 743 c 0,57,58
 9 920 9 920 70.5 1070 c 128,-1,59
 132 1220 132 1220 258 1346 c 0,60,61
 382 1471 382 1471 532 1533 c 1,62,37
 684 1597 684 1597 858 1597 c 128,-1,38
EndSplineSet
EndChar

StartChar: uni277F
Encoding: 10111 10111 9
Width: 1716
Flags: HW
LayerCount: 2
Fore
SplineSet
1177 1237 m 0,0,1
 1278 1237 1278 1237 1328 1114.5 c 128,-1,2
 1378 992 1378 992 1378 745 c 0,3,4
 1378 500 1378 500 1328 377 c 128,-1,5
 1278 254 1278 254 1177 254 c 0,6,7
 1077 254 1077 254 1027 377 c 128,-1,8
 977 500 977 500 977 745 c 0,9,10
 977 992 977 992 1027 1114.5 c 128,-1,11
 1077 1237 1077 1237 1177 1237 c 0,0,1
1177 1365 m 128,-1,13
 1016 1365 1016 1365 931.5 1206.5 c 128,-1,14
 847 1048 847 1048 847 745 c 0,15,16
 847 444 847 444 931.5 285 c 128,-1,17
 1016 126 1016 126 1177 126 c 128,-1,18
 1338 126 1338 126 1423 285 c 128,-1,19
 1508 444 1508 444 1508 745 c 0,20,21
 1508 1048 1508 1048 1423 1206.5 c 128,-1,12
 1338 1365 1338 1365 1177 1365 c 128,-1,13
373 285 m 1,22,-1
 373 149 l 1,23,-1
 823 149 l 1,24,-1
 823 285 l 1,25,-1
 662 285 l 1,26,-1
 662 1344 l 1,27,-1
 533 1344 l 1,28,-1
 354 1306 l 1,29,-1
 354 1159 l 1,30,-1
 534 1196 l 1,31,-1
 534 285 l 1,32,-1
 373 285 l 1,22,-1
858 1597 m 128,-1,34
 1032 1597 1032 1597 1184 1533 c 1,35,36
 1334 1471 1334 1471 1458 1346 c 0,37,38
 1584 1220 1584 1220 1645.5 1070 c 128,-1,39
 1707 920 1707 920 1707 743 c 0,40,41
 1707 571 1707 571 1645.5 421 c 128,-1,42
 1584 271 1584 271 1458 145 c 0,43,44
 1334 20 1334 20 1184 -42 c 1,45,46
 1032 -106 1032 -106 858 -106 c 128,-1,47
 684 -106 684 -106 532 -42 c 1,48,49
 382 20 382 20 258 145 c 0,50,51
 132 271 132 271 70.5 421 c 128,-1,52
 9 571 9 571 9 743 c 0,53,54
 9 920 9 920 70.5 1070 c 128,-1,55
 132 1220 132 1220 258 1346 c 0,56,57
 382 1471 382 1471 532 1533 c 1,58,33
 684 1597 684 1597 858 1597 c 128,-1,34
EndSplineSet
EndChar

StartChar: uni24EB
Encoding: 9451 9451 10
Width: 1716
Flags: HW
LayerCount: 2
Fore
SplineSet
930 285 m 5,0,-1
 930 149 l 5,1,-1
 1380 149 l 5,2,-1
 1380 285 l 5,3,-1
 1219 285 l 5,4,-1
 1219 1344 l 5,5,-1
 1090 1344 l 5,6,-1
 911 1306 l 5,7,-1
 911 1159 l 5,8,-1
 1091 1196 l 5,9,-1
 1091 285 l 5,10,-1
 930 285 l 5,0,-1
373 285 m 1,11,-1
 373 149 l 1,12,-1
 823 149 l 1,13,-1
 823 285 l 1,14,-1
 662 285 l 1,15,-1
 662 1344 l 1,16,-1
 533 1344 l 1,17,-1
 354 1306 l 1,18,-1
 354 1159 l 1,19,-1
 534 1196 l 1,20,-1
 534 285 l 1,21,-1
 373 285 l 1,11,-1
858 1597 m 128,-1,23
 1032 1597 1032 1597 1184 1533 c 1,24,25
 1334 1471 1334 1471 1458 1346 c 0,26,27
 1584 1220 1584 1220 1645.5 1070 c 128,-1,28
 1707 920 1707 920 1707 743 c 0,29,30
 1707 571 1707 571 1645.5 421 c 128,-1,31
 1584 271 1584 271 1458 145 c 0,32,33
 1334 20 1334 20 1184 -42 c 1,34,35
 1032 -106 1032 -106 858 -106 c 128,-1,36
 684 -106 684 -106 532 -42 c 1,37,38
 382 20 382 20 258 145 c 0,39,40
 132 271 132 271 70.5 421 c 128,-1,41
 9 571 9 571 9 743 c 0,42,43
 9 920 9 920 70.5 1070 c 128,-1,44
 132 1220 132 1220 258 1346 c 0,45,46
 382 1471 382 1471 532 1533 c 1,47,22
 684 1597 684 1597 858 1597 c 128,-1,23
EndSplineSet
EndChar

StartChar: uni24EC
Encoding: 9452 9452 11
Width: 1716
Flags: HW
LayerCount: 2
Fore
SplineSet
1034.09 285.849 m 1,0,1
 1075.47 342.087 1075.47 342.087 1239.15 606.54 c 0,2,3
 1311.71 723.79 1311.71 723.79 1325.22 746.603 c 1,4,5
 1374.5 835.866 1374.5 835.866 1392.63 899.793 c 128,-1,6
 1410.77 963.72 1410.77 963.72 1410.77 1036.12 c 0,7,8
 1410.77 1189.86 1410.77 1189.86 1336.18 1282.09 c 128,-1,9
 1261.58 1374.34 1261.58 1374.34 1136.03 1374.34 c 0,10,11
 1088.77 1374.34 1088.77 1374.34 1031.39 1354.5 c 128,-1,12
 974.013 1334.66 974.013 1334.66 908.532 1295.98 c 1,13,-1
 908.532 1134.31 l 1,14,15
 973.337 1186.88 973.337 1186.88 1030.38 1213.16 c 128,-1,16
 1087.42 1239.45 1087.42 1239.45 1138.73 1239.45 c 0,17,18
 1210.96 1239.45 1210.96 1239.45 1255.85 1179.94 c 128,-1,19
 1300.74 1120.43 1300.74 1120.43 1300.74 1026.2 c 0,20,21
 1300.74 948.69 1300.74 948.69 1280.58 909.711 c 0,22,23
 1274.16 897.303 1274.16 897.303 1207.76 764.455 c 0,24,25
 1202.82 762.883 1202.82 762.883 1076.49 559.643 c 0,26,27
 925.033 315.992 925.033 315.992 903.131 285.849 c 1,28,-1
 903.131 153.961 l 1,29,-1
 1402.92 153.961 l 1,30,-1
 1402.92 285.849 l 1,31,-1
 1034.09 285.849 l 1,0,1
373 285 m 1,32,-1
 373 149 l 1,33,-1
 823 149 l 1,34,-1
 823 285 l 1,35,-1
 662 285 l 1,36,-1
 662 1344 l 1,37,-1
 533 1344 l 1,38,-1
 354 1306 l 1,39,-1
 354 1159 l 1,40,-1
 534 1196 l 1,41,-1
 534 285 l 1,42,-1
 373 285 l 1,32,-1
858 1597 m 128,-1,44
 1032 1597 1032 1597 1184 1533 c 1,45,46
 1334 1471 1334 1471 1458 1346 c 0,47,48
 1584 1220 1584 1220 1645.5 1070 c 128,-1,49
 1707 920 1707 920 1707 743 c 0,50,51
 1707 571 1707 571 1645.5 421 c 128,-1,52
 1584 271 1584 271 1458 145 c 0,53,54
 1334 20 1334 20 1184 -42 c 1,55,56
 1032 -106 1032 -106 858 -106 c 128,-1,57
 684 -106 684 -106 532 -42 c 1,58,59
 382 20 382 20 258 145 c 0,60,61
 132 271 132 271 70.5 421 c 128,-1,62
 9 571 9 571 9 743 c 0,63,64
 9 920 9 920 70.5 1070 c 128,-1,65
 132 1220 132 1220 258 1346 c 0,66,67
 382 1471 382 1471 532 1533 c 1,68,43
 684 1597 684 1597 858 1597 c 128,-1,44
EndSplineSet
EndChar

StartChar: uni24ED
Encoding: 9453 9453 12
Width: 1716
Flags: HW
LayerCount: 2
Fore
SplineSet
1284.88 793 m 5,0,1
 1367.96 820 1367.96 820 1413.06 888 c 132,-1,2
 1458.16 956 1458.16 956 1458.16 1056 c 4,3,4
 1458.16 1198 1458.16 1198 1373.1 1281.5 c 132,-1,5
 1288.05 1365 1288.05 1365 1142.46 1365 c 4,6,7
 1086.29 1365 1086.29 1365 1022.6 1352.5 c 132,-1,8
 958.902 1340 958.902 1340 886.111 1314 c 5,9,-1
 886.111 1170 l 5,10,11
 958.902 1200 958.902 1200 1019.03 1214.5 c 132,-1,12
 1079.17 1229 1079.17 1229 1131.39 1229 c 4,13,14
 1227.92 1229 1227.92 1229 1279.34 1180 c 132,-1,15
 1330.77 1131 1330.77 1131 1330.77 1039 c 4,16,17
 1330.77 949 1330.77 949 1280.93 901.5 c 132,-1,18
 1231.08 854 1231.08 854 1136.13 854 c 6,19,-1
 1021.41 854 l 5,20,-1
 1021.41 721 l 5,21,-1
 1131.39 721 l 6,22,23
 1235.83 721 1235.83 721 1294.38 661.5 c 132,-1,24
 1352.93 602 1352.93 602 1352.93 496 c 4,25,26
 1352.93 382 1352.93 382 1290.02 322 c 132,-1,27
 1227.12 262 1227.12 262 1106.86 262 c 4,28,29
 1038.02 262 1038.02 262 974.727 282 c 132,-1,30
 911.43 302 911.43 302 857.627 341 c 5,31,-1
 857.627 185 l 5,32,33
 924.88 156 924.88 156 987.782 141 c 132,-1,34
 1050.68 126 1050.68 126 1110.82 126 c 4,35,36
 1288.05 126 1288.05 126 1384.18 223 c 132,-1,37
 1480.31 320 1480.31 320 1480.31 496 c 4,38,39
 1480.31 612 1480.31 612 1428.49 690 c 132,-1,40
 1376.66 768 1376.66 768 1284.88 793 c 5,0,1
373 285 m 1,41,-1
 373 149 l 1,42,-1
 823 149 l 1,43,-1
 823 285 l 1,44,-1
 662 285 l 1,45,-1
 662 1344 l 1,46,-1
 533 1344 l 1,47,-1
 354 1306 l 1,48,-1
 354 1159 l 1,49,-1
 534 1196 l 1,50,-1
 534 285 l 1,51,-1
 373 285 l 1,41,-1
858 1597 m 128,-1,53
 1032 1597 1032 1597 1184 1533 c 1,54,55
 1334 1471 1334 1471 1458 1346 c 0,56,57
 1584 1220 1584 1220 1645.5 1070 c 128,-1,58
 1707 920 1707 920 1707 743 c 0,59,60
 1707 571 1707 571 1645.5 421 c 128,-1,61
 1584 271 1584 271 1458 145 c 0,62,63
 1334 20 1334 20 1184 -42 c 1,64,65
 1032 -106 1032 -106 858 -106 c 128,-1,66
 684 -106 684 -106 532 -42 c 1,67,68
 382 20 382 20 258 145 c 0,69,70
 132 271 132 271 70.5 421 c 128,-1,71
 9 571 9 571 9 743 c 0,72,73
 9 920 9 920 70.5 1070 c 128,-1,74
 132 1220 132 1220 258 1346 c 0,75,76
 382 1471 382 1471 532 1533 c 1,77,52
 684 1597 684 1597 858 1597 c 128,-1,53
EndSplineSet
EndChar

StartChar: uni24EE
Encoding: 9454 9454 13
Width: 1716
Flags: HW
LayerCount: 2
Fore
SplineSet
1229.02 1198 m 5,0,-1
 1229.02 560 l 5,1,-1
 906.356 560 l 5,2,-1
 1229.02 1198 l 5,0,-1
1195.8 1339 m 5,3,-1
 802.757 582 l 5,4,-1
 802.757 426 l 5,5,-1
 1229.02 426 l 5,6,-1
 1229.02 144 l 5,7,-1
 1356.34 144 l 5,8,-1
 1356.34 426 l 5,9,-1
 1490.78 426 l 5,10,-1
 1490.78 560 l 5,11,-1
 1356.34 560 l 5,12,-1
 1356.34 1339 l 5,13,-1
 1195.8 1339 l 5,3,-1
373 285 m 1,14,-1
 373 149 l 1,15,-1
 823 149 l 1,16,-1
 823 285 l 1,17,-1
 662 285 l 1,18,-1
 662 1344 l 1,19,-1
 533 1344 l 1,20,-1
 354 1306 l 1,21,-1
 354 1159 l 1,22,-1
 534 1196 l 1,23,-1
 534 285 l 1,24,-1
 373 285 l 1,14,-1
858 1597 m 128,-1,26
 1032 1597 1032 1597 1184 1533 c 1,27,28
 1334 1471 1334 1471 1458 1346 c 0,29,30
 1584 1220 1584 1220 1645.5 1070 c 128,-1,31
 1707 920 1707 920 1707 743 c 0,32,33
 1707 571 1707 571 1645.5 421 c 128,-1,34
 1584 271 1584 271 1458 145 c 0,35,36
 1334 20 1334 20 1184 -42 c 1,37,38
 1032 -106 1032 -106 858 -106 c 128,-1,39
 684 -106 684 -106 532 -42 c 1,40,41
 382 20 382 20 258 145 c 0,42,43
 132 271 132 271 70.5 421 c 128,-1,44
 9 571 9 571 9 743 c 0,45,46
 9 920 9 920 70.5 1070 c 128,-1,47
 132 1220 132 1220 258 1346 c 0,48,49
 382 1471 382 1471 532 1533 c 1,50,25
 684 1597 684 1597 858 1597 c 128,-1,26
EndSplineSet
EndChar

StartChar: uni24EF
Encoding: 9455 9455 14
Width: 1716
Flags: HW
LayerCount: 2
Fore
SplineSet
901.415 1322.33 m 5,0,-1
 901.415 735.835 l 5,1,2
 953.883 765.16 953.883 765.16 1004.39 779.334 c 132,-1,3
 1054.9 793.508 1054.9 793.508 1105.8 793.508 c 4,4,5
 1213.87 793.508 1213.87 793.508 1277.3 722.15 c 132,-1,6
 1340.73 650.793 1340.73 650.793 1340.73 529.582 c 4,7,8
 1340.73 407.395 1340.73 407.395 1277.3 336.037 c 132,-1,9
 1213.87 264.68 1213.87 264.68 1105.8 264.68 c 4,10,11
 1038.46 264.68 1038.46 264.68 978.551 283.741 c 132,-1,12
 918.644 302.803 918.644 302.803 862.261 340.925 c 5,13,-1
 862.261 181.593 l 5,14,15
 927.258 157.155 927.258 157.155 988.339 144.447 c 132,-1,16
 1049.42 131.74 1049.42 131.74 1108.15 131.74 c 4,17,18
 1278.87 131.74 1278.87 131.74 1372.84 236.332 c 132,-1,19
 1466.81 340.925 1466.81 340.925 1466.81 529.582 c 4,20,21
 1466.81 712.375 1466.81 712.375 1375.58 819.411 c 132,-1,22
 1284.35 926.447 1284.35 926.447 1127.73 926.447 c 4,23,24
 1100.32 926.447 1100.32 926.447 1072.52 920.582 c 132,-1,25
 1044.72 914.718 1044.72 914.718 1017.31 902.987 c 5,26,-1
 1017.31 1189.39 l 5,27,-1
 1397.9 1189.39 l 5,28,-1
 1397.9 1322.33 l 5,29,-1
 901.415 1322.33 l 5,0,-1
373 285 m 1,30,-1
 373 149 l 1,31,-1
 823 149 l 1,32,-1
 823 285 l 1,33,-1
 662 285 l 1,34,-1
 662 1344 l 1,35,-1
 533 1344 l 1,36,-1
 354 1306 l 1,37,-1
 354 1159 l 1,38,-1
 534 1196 l 1,39,-1
 534 285 l 1,40,-1
 373 285 l 1,30,-1
858 1597 m 128,-1,42
 1032 1597 1032 1597 1184 1533 c 1,43,44
 1334 1471 1334 1471 1458 1346 c 0,45,46
 1584 1220 1584 1220 1645.5 1070 c 128,-1,47
 1707 920 1707 920 1707 743 c 0,48,49
 1707 571 1707 571 1645.5 421 c 128,-1,50
 1584 271 1584 271 1458 145 c 0,51,52
 1334 20 1334 20 1184 -42 c 1,53,54
 1032 -106 1032 -106 858 -106 c 128,-1,55
 684 -106 684 -106 532 -42 c 1,56,57
 382 20 382 20 258 145 c 0,58,59
 132 271 132 271 70.5 421 c 128,-1,60
 9 571 9 571 9 743 c 0,61,62
 9 920 9 920 70.5 1070 c 128,-1,63
 132 1220 132 1220 258 1346 c 0,64,65
 382 1471 382 1471 532 1533 c 1,66,41
 684 1597 684 1597 858 1597 c 128,-1,42
EndSplineSet
EndChar

StartChar: uni24F0
Encoding: 9456 9456 15
Width: 1716
Flags: HW
LayerCount: 2
Fore
SplineSet
1162.04 820.787 m 4,0,1
 1248.03 820.787 1248.03 820.787 1298.12 747.964 c 132,-1,2
 1348.22 675.14 1348.22 675.14 1348.22 548.065 c 4,3,4
 1348.22 422.945 1348.22 422.945 1298.12 349.633 c 132,-1,5
 1248.03 276.32 1248.03 276.32 1162.04 276.32 c 4,6,7
 1076.83 276.32 1076.83 276.32 1026.35 349.633 c 132,-1,8
 975.856 422.945 975.856 422.945 975.856 548.065 c 4,9,10
 975.856 675.14 975.856 675.14 1026.35 747.964 c 132,-1,11
 1076.83 820.787 1076.83 820.787 1162.04 820.787 c 4,0,1
1415.27 1315.4 m 5,12,13
 1362.42 1338.86 1362.42 1338.86 1313.51 1350.59 c 132,-1,14
 1264.59 1362.32 1264.59 1362.32 1216.47 1362.32 c 4,15,16
 1038.18 1362.32 1038.18 1362.32 932.071 1197.61 c 132,-1,17
 825.965 1032.91 825.965 1032.91 825.965 756.272 c 4,18,19
 825.965 462.045 825.965 462.045 912.349 306.622 c 132,-1,20
 998.734 151.2 998.734 151.2 1162.04 151.2 c 4,21,22
 1304.83 151.2 1304.83 151.2 1390.82 259.702 c 132,-1,23
 1476.81 368.205 1476.81 368.205 1476.81 548.065 c 4,24,25
 1476.81 731.835 1476.81 731.835 1394.37 838.871 c 132,-1,26
 1311.93 945.907 1311.93 945.907 1169.93 945.907 c 4,27,28
 1102.08 945.907 1102.08 945.907 1046.07 909.251 c 132,-1,29
 990.056 872.595 990.056 872.595 952.979 805.147 c 5,30,31
 962.444 1018.24 962.444 1018.24 1029.11 1123.81 c 132,-1,32
 1095.77 1229.38 1095.77 1229.38 1221.99 1229.38 c 4,33,34
 1269.33 1229.38 1269.33 1229.38 1318.24 1214.72 c 132,-1,35
 1367.15 1200.06 1367.15 1200.06 1415.27 1171.71 c 5,36,-1
 1415.27 1315.4 l 5,12,13
373 285 m 1,37,-1
 373 149 l 1,38,-1
 823 149 l 1,39,-1
 823 285 l 1,40,-1
 662 285 l 1,41,-1
 662 1344 l 1,42,-1
 533 1344 l 1,43,-1
 354 1306 l 1,44,-1
 354 1159 l 1,45,-1
 534 1196 l 1,46,-1
 534 285 l 1,47,-1
 373 285 l 1,37,-1
858 1597 m 128,-1,49
 1032 1597 1032 1597 1184 1533 c 1,50,51
 1334 1471 1334 1471 1458 1346 c 0,52,53
 1584 1220 1584 1220 1645.5 1070 c 128,-1,54
 1707 920 1707 920 1707 743 c 0,55,56
 1707 571 1707 571 1645.5 421 c 128,-1,57
 1584 271 1584 271 1458 145 c 0,58,59
 1334 20 1334 20 1184 -42 c 1,60,61
 1032 -106 1032 -106 858 -106 c 128,-1,62
 684 -106 684 -106 532 -42 c 1,63,64
 382 20 382 20 258 145 c 0,65,66
 132 271 132 271 70.5 421 c 128,-1,67
 9 571 9 571 9 743 c 0,68,69
 9 920 9 920 70.5 1070 c 128,-1,70
 132 1220 132 1220 258 1346 c 0,71,72
 382 1471 382 1471 532 1533 c 1,73,48
 684 1597 684 1597 858 1597 c 128,-1,49
EndSplineSet
EndChar

StartChar: uni24F1
Encoding: 9457 9457 16
Width: 1716
Flags: HW
LayerCount: 2
Fore
SplineSet
800.975 1344 m 5,0,-1
 800.975 1208 l 5,1,-1
 1245.83 1208 l 5,2,-1
 929.625 149 l 5,3,-1
 1059.83 149 l 5,4,-1
 1396.17 1275 l 5,5,-1
 1396.17 1344 l 5,6,-1
 800.975 1344 l 5,0,-1
373 285 m 1,7,-1
 373 149 l 1,8,-1
 823 149 l 1,9,-1
 823 285 l 1,10,-1
 662 285 l 1,11,-1
 662 1344 l 1,12,-1
 533 1344 l 1,13,-1
 354 1306 l 1,14,-1
 354 1159 l 1,15,-1
 534 1196 l 1,16,-1
 534 285 l 1,17,-1
 373 285 l 1,7,-1
858 1597 m 128,-1,19
 1032 1597 1032 1597 1184 1533 c 1,20,21
 1334 1471 1334 1471 1458 1346 c 0,22,23
 1584 1220 1584 1220 1645.5 1070 c 128,-1,24
 1707 920 1707 920 1707 743 c 0,25,26
 1707 571 1707 571 1645.5 421 c 128,-1,27
 1584 271 1584 271 1458 145 c 0,28,29
 1334 20 1334 20 1184 -42 c 1,30,31
 1032 -106 1032 -106 858 -106 c 128,-1,32
 684 -106 684 -106 532 -42 c 1,33,34
 382 20 382 20 258 145 c 0,35,36
 132 271 132 271 70.5 421 c 128,-1,37
 9 571 9 571 9 743 c 0,38,39
 9 920 9 920 70.5 1070 c 128,-1,40
 132 1220 132 1220 258 1346 c 0,41,42
 382 1471 382 1471 532 1533 c 1,43,18
 684 1597 684 1597 858 1597 c 128,-1,19
EndSplineSet
EndChar

StartChar: uni24F2
Encoding: 9458 9458 17
Width: 1716
Flags: HW
LayerCount: 2
Fore
SplineSet
1145.81 723.847 m 4,0,1
 1233.69 723.847 1233.69 723.847 1283.69 663.793 c 132,-1,2
 1333.69 603.739 1333.69 603.739 1333.69 498.279 c 4,3,4
 1333.69 393.794 1333.69 393.794 1283.31 333.252 c 132,-1,5
 1232.93 272.71 1232.93 272.71 1145.81 272.71 c 132,-1,6
 1058.69 272.71 1058.69 272.71 1008.7 332.764 c 132,-1,7
 958.695 392.817 958.695 392.817 958.695 498.279 c 132,-1,8
 958.695 603.739 958.695 603.739 1008.7 663.793 c 132,-1,9
 1058.69 723.847 1058.69 723.847 1145.81 723.847 c 4,0,1
1023.09 791.225 m 5,10,11
 935.212 764.859 935.212 764.859 885.212 687.717 c 132,-1,12
 835.214 610.575 835.214 610.575 835.214 498.279 c 4,13,14
 835.214 329.347 835.214 329.347 915.515 238.533 c 132,-1,15
 995.816 147.719 995.816 147.719 1145.81 147.719 c 132,-1,16
 1295.81 147.719 1295.81 147.719 1376.11 238.533 c 132,-1,17
 1456.42 329.347 1456.42 329.347 1456.42 498.279 c 4,18,19
 1456.42 610.575 1456.42 610.575 1406.79 687.717 c 132,-1,20
 1357.17 764.859 1357.17 764.859 1268.54 791.225 c 5,21,22
 1347.33 816.614 1347.33 816.614 1391.26 885.944 c 132,-1,23
 1435.2 955.274 1435.2 955.274 1435.2 1055.85 c 4,24,25
 1435.2 1195.49 1435.2 1195.49 1357.93 1276.54 c 132,-1,26
 1280.66 1357.59 1280.66 1357.59 1145.81 1357.59 c 132,-1,27
 1010.97 1357.59 1010.97 1357.59 933.696 1276.54 c 132,-1,28
 856.425 1195.49 856.425 1195.49 856.425 1055.85 c 4,29,30
 856.425 955.274 856.425 955.274 900.363 885.944 c 132,-1,31
 944.302 816.614 944.302 816.614 1023.09 791.225 c 5,10,11
978.393 1040.23 m 4,32,33
 978.393 1131.04 978.393 1131.04 1022.33 1181.82 c 132,-1,34
 1066.27 1232.6 1066.27 1232.6 1145.81 1232.6 c 4,35,36
 1224.6 1232.6 1224.6 1232.6 1269.3 1181.82 c 132,-1,37
 1313.99 1131.04 1313.99 1131.04 1313.99 1040.23 c 4,38,39
 1313.99 950.393 1313.99 950.393 1269.3 899.615 c 132,-1,40
 1224.6 848.838 1224.6 848.838 1145.81 848.838 c 4,41,42
 1066.27 848.838 1066.27 848.838 1022.33 899.615 c 132,-1,43
 978.393 950.393 978.393 950.393 978.393 1040.23 c 4,32,33
373 285 m 1,44,-1
 373 149 l 1,45,-1
 823 149 l 1,46,-1
 823 285 l 1,47,-1
 662 285 l 1,48,-1
 662 1344 l 1,49,-1
 533 1344 l 1,50,-1
 354 1306 l 1,51,-1
 354 1159 l 1,52,-1
 534 1196 l 1,53,-1
 534 285 l 1,54,-1
 373 285 l 1,44,-1
858 1597 m 128,-1,56
 1032 1597 1032 1597 1184 1533 c 1,57,58
 1334 1471 1334 1471 1458 1346 c 0,59,60
 1584 1220 1584 1220 1645.5 1070 c 128,-1,61
 1707 920 1707 920 1707 743 c 0,62,63
 1707 571 1707 571 1645.5 421 c 128,-1,64
 1584 271 1584 271 1458 145 c 0,65,66
 1334 20 1334 20 1184 -42 c 1,67,68
 1032 -106 1032 -106 858 -106 c 128,-1,69
 684 -106 684 -106 532 -42 c 1,70,71
 382 20 382 20 258 145 c 0,72,73
 132 271 132 271 70.5 421 c 128,-1,74
 9 571 9 571 9 743 c 0,75,76
 9 920 9 920 70.5 1070 c 128,-1,77
 132 1220 132 1220 258 1346 c 0,78,79
 382 1471 382 1471 532 1533 c 1,80,55
 684 1597 684 1597 858 1597 c 128,-1,56
EndSplineSet
EndChar

StartChar: uni24F3
Encoding: 9459 9459 18
Width: 1716
Flags: HW
LayerCount: 2
Fore
SplineSet
890.259 175 m 5,0,1
 944.166 151 944.166 151 994.452 139 c 132,-1,2
 1044.74 127 1044.74 127 1093.82 127 c 4,3,4
 1275.66 127 1275.66 127 1383.47 295.5 c 132,-1,5
 1491.29 464 1491.29 464 1491.29 746 c 4,6,7
 1491.29 1049 1491.29 1049 1403.58 1207.5 c 132,-1,8
 1315.89 1366 1315.89 1366 1148.53 1366 c 4,9,10
 1003.71 1366 1003.71 1366 916.005 1255 c 132,-1,11
 828.306 1144 828.306 1144 828.306 960 c 4,12,13
 828.306 772 828.306 772 912.385 663.5 c 132,-1,14
 996.464 555 996.464 555 1140.49 555 c 4,15,16
 1209.68 555 1209.68 555 1267.21 592 c 132,-1,17
 1324.74 629 1324.74 629 1361.75 697 c 5,18,19
 1352.09 478 1352.09 478 1284.1 370.5 c 132,-1,20
 1216.12 263 1216.12 263 1087.38 263 c 4,21,22
 1039.11 263 1039.11 263 989.223 278 c 132,-1,23
 939.338 293 939.338 293 890.259 322 c 5,24,-1
 890.259 175 l 5,0,1
1148.53 681 m 4,25,26
 1061.63 681 1061.63 681 1010.14 755.5 c 132,-1,27
 958.648 830 958.648 830 958.648 960 c 4,28,29
 958.648 1089 958.648 1089 1010.14 1163.5 c 132,-1,30
 1061.63 1238 1061.63 1238 1148.53 1238 c 4,31,32
 1236.23 1238 1236.23 1238 1287.32 1163.5 c 132,-1,33
 1338.41 1089 1338.41 1089 1338.41 960 c 4,34,35
 1338.41 830 1338.41 830 1287.32 755.5 c 132,-1,36
 1236.23 681 1236.23 681 1148.53 681 c 4,25,26
373 285 m 1,37,-1
 373 149 l 1,38,-1
 823 149 l 1,39,-1
 823 285 l 1,40,-1
 662 285 l 1,41,-1
 662 1344 l 1,42,-1
 533 1344 l 1,43,-1
 354 1306 l 1,44,-1
 354 1159 l 1,45,-1
 534 1196 l 1,46,-1
 534 285 l 1,47,-1
 373 285 l 1,37,-1
858 1597 m 128,-1,49
 1032 1597 1032 1597 1184 1533 c 1,50,51
 1334 1471 1334 1471 1458 1346 c 0,52,53
 1584 1220 1584 1220 1645.5 1070 c 128,-1,54
 1707 920 1707 920 1707 743 c 0,55,56
 1707 571 1707 571 1645.5 421 c 128,-1,57
 1584 271 1584 271 1458 145 c 0,58,59
 1334 20 1334 20 1184 -42 c 1,60,61
 1032 -106 1032 -106 858 -106 c 128,-1,62
 684 -106 684 -106 532 -42 c 1,63,64
 382 20 382 20 258 145 c 0,65,66
 132 271 132 271 70.5 421 c 128,-1,67
 9 571 9 571 9 743 c 0,68,69
 9 920 9 920 70.5 1070 c 128,-1,70
 132 1220 132 1220 258 1346 c 0,71,72
 382 1471 382 1471 532 1533 c 1,73,48
 684 1597 684 1597 858 1597 c 128,-1,49
EndSplineSet
EndChar

StartChar: uni24F4
Encoding: 9460 9460 19
Width: 1716
Flags: HW
LayerCount: 2
Fore
SplineSet
444.092 288.849 m 5,0,1
 537.631 426.362 537.631 426.362 649.146 606.54 c 4,2,3
 721.715 723.79 721.715 723.79 735.216 746.603 c 5,4,5
 784.496 835.866 784.496 835.866 802.635 899.793 c 132,-1,6
 820.773 963.72 820.773 963.72 820.773 1036.12 c 4,7,8
 820.773 1189.86 820.773 1189.86 746.179 1282.09 c 132,-1,9
 671.585 1374.34 671.585 1374.34 546.025 1374.34 c 4,10,11
 498.772 1374.34 498.772 1374.34 441.393 1354.5 c 132,-1,12
 384.013 1334.66 384.013 1334.66 318.532 1295.98 c 5,13,-1
 318.532 1134.31 l 5,14,15
 383.337 1186.88 383.337 1186.88 440.379 1213.16 c 132,-1,16
 497.422 1239.45 497.422 1239.45 548.727 1239.45 c 4,17,18
 620.956 1239.45 620.956 1239.45 665.848 1179.94 c 132,-1,19
 710.738 1120.43 710.738 1120.43 710.738 1026.2 c 4,20,21
 710.738 948.69 710.738 948.69 690.575 909.711 c 4,22,23
 684.156 897.303 684.156 897.303 617.757 764.455 c 4,24,25
 600.711 730.353 600.711 730.353 486.486 559.643 c 4,26,27
 346.139 349.893 346.139 349.893 313.131 288.849 c 5,28,-1
 313.131 153.961 l 5,29,-1
 812.917 153.961 l 5,30,-1
 812.917 288.849 l 5,31,-1
 444.092 288.849 l 5,0,1
1177 1237 m 0,32,33
 1278 1237 1278 1237 1328 1114.5 c 128,-1,34
 1378 992 1378 992 1378 745 c 0,35,36
 1378 500 1378 500 1328 377 c 128,-1,37
 1278 254 1278 254 1177 254 c 0,38,39
 1077 254 1077 254 1027 377 c 128,-1,40
 977 500 977 500 977 745 c 0,41,42
 977 992 977 992 1027 1114.5 c 128,-1,43
 1077 1237 1077 1237 1177 1237 c 0,32,33
1177 1365 m 128,-1,45
 1016 1365 1016 1365 931.5 1206.5 c 128,-1,46
 847 1048 847 1048 847 745 c 0,47,48
 847 444 847 444 931.5 285 c 128,-1,49
 1016 126 1016 126 1177 126 c 128,-1,50
 1338 126 1338 126 1423 285 c 128,-1,51
 1508 444 1508 444 1508 745 c 0,52,53
 1508 1048 1508 1048 1423 1206.5 c 128,-1,44
 1338 1365 1338 1365 1177 1365 c 128,-1,45
858 1597 m 128,-1,55
 1032 1597 1032 1597 1184 1533 c 1,56,57
 1334 1471 1334 1471 1458 1346 c 0,58,59
 1584 1220 1584 1220 1645.5 1070 c 128,-1,60
 1707 920 1707 920 1707 743 c 0,61,62
 1707 571 1707 571 1645.5 421 c 128,-1,63
 1584 271 1584 271 1458 145 c 0,64,65
 1334 20 1334 20 1184 -42 c 1,66,67
 1032 -106 1032 -106 858 -106 c 128,-1,68
 684 -106 684 -106 532 -42 c 1,69,70
 382 20 382 20 258 145 c 0,71,72
 132 271 132 271 70.5 421 c 128,-1,73
 9 571 9 571 9 743 c 0,74,75
 9 920 9 920 70.5 1070 c 128,-1,76
 132 1220 132 1220 258 1346 c 0,77,78
 382 1471 382 1471 532 1533 c 1,79,54
 684 1597 684 1597 858 1597 c 128,-1,55
EndSplineSet
EndChar
